<svg  viewBox="0 0 357 292" fill="none" xmlns="http://www.w3.org/2000/svg">
<path opacity="0.1" d="M356.581 0.0970459H11.7428V267.338H356.581V0.0970459Z" fill="black"/>
<path d="M159.576 128.932L156.045 164.367L191.951 169.682L194.599 149.307L197.249 128.932H159.576Z" fill="#FFB9B9"/>
<path opacity="0.1" d="M159.576 128.932L156.045 164.367L191.951 169.682L194.599 149.307L197.249 128.932H159.576Z" fill="black"/>
<path d="M179.295 140.448C194.9 140.448 207.549 127.757 207.549 112.101C207.549 96.4448 194.9 83.7531 179.295 83.7531C163.691 83.7531 151.041 96.4448 151.041 112.101C151.041 127.757 163.691 140.448 179.295 140.448Z" fill="#FFB9B9"/>
<path d="M107.897 290.701C107.798 290.494 107.69 290.278 107.582 290.043C107.376 289.602 107.151 289.124 106.909 288.601C105.345 285.104 103.432 280.128 104.537 278.641C106.307 276.279 106.891 273.918 105.714 272.737C104.537 271.556 101.006 273.918 104.537 270.961C108.068 268.014 109.244 269.781 108.068 266.238C106.891 262.696 104.537 264.472 106.891 262.696C109.244 260.929 111.014 261.515 109.837 259.748C108.661 257.973 106.307 257.973 108.661 256.792C111.014 255.611 112.784 256.792 112.191 253.835C111.598 250.888 111.014 252.069 112.191 250.888C112.497 250.582 113.566 247.607 114.994 243.362C118.992 231.364 125.73 209.236 125.73 208.362C125.73 207.181 116.315 169.981 116.315 169.981L112.191 167.611C112.191 167.611 93.9448 180.014 88.0603 207.776C82.1668 235.529 78.0522 242.622 78.0522 242.622C78.0522 242.622 72.1677 243.803 76.2824 247.931C80.406 252.069 80.406 251.474 76.8753 253.835C73.3446 256.197 70.9908 251.474 73.3446 256.197C75.6984 260.929 78.6361 259.748 76.2824 262.696C73.9286 265.652 69.8139 265.652 72.1677 268.014C74.5215 270.376 69.8139 275.694 72.7517 278.055C75.6984 280.417 76.8753 281.003 76.8753 285.14C76.8766 286.299 76.9697 287.457 77.1538 288.601C77.255 289.309 77.399 290.011 77.585 290.701C77.7198 291.251 77.8545 291.666 77.9444 291.927L107.897 290.701Z" fill="#E9B01F"/>
<path d="M107.897 290.701H110.296L110.421 289.863L107.582 290.043L97.2599 290.701L77.9444 291.927L107.897 290.701Z" fill="#3F3D56"/>
<path d="M120.43 265.652L115.138 247.346L114.994 243.362L112.191 167.611L146.923 155.217L152.808 150.485C152.808 150.485 153.985 136.901 155.754 135.72C156.392 135.297 157.416 135.793 158.773 136.946C161.154 138.974 164.568 143.021 168.7 147.537C175.178 154.622 188.717 153.441 192.831 151.08C193.361 150.77 193.91 150.496 194.475 150.259C197.431 149.034 198.716 149.899 198.716 149.899C201.663 152.26 194.601 159.94 194.601 159.94C194.601 159.94 196.955 165.249 212.255 170.567C227.563 175.885 230.51 200.691 230.51 200.691C230.51 200.691 212.255 250.293 212.848 253.835C213.351 256.873 211.266 263.381 210.655 265.184V265.193C210.557 265.481 210.494 265.652 210.494 265.652L211.832 288.601L211.958 290.701H122.918C122.653 289.971 122.319 289.268 121.921 288.601C121.822 288.439 121.714 288.268 121.606 288.096C116.315 279.822 120.43 265.652 120.43 265.652Z" fill="#E9B01F"/>
<path d="M150.845 115.732C150.845 115.732 147.911 111.316 149.039 106.561C149.714 103.861 149.98 101.075 149.829 98.296C149.829 98.296 152.199 90.597 154.569 86.2946C156.939 81.9922 155.81 80.1806 163.258 78.822C170.706 77.4633 167.659 67.7263 187.295 78.2559C187.957 79.1839 188.879 79.8942 189.943 80.2972C191.008 80.7002 192.168 80.7778 193.276 80.5203C197.338 79.7277 198.805 85.3888 198.805 85.3888C198.805 85.3888 201.514 83.8037 202.529 86.0681C203.545 88.3326 210.787 84.7091 210.787 99.9939C210.787 115.279 202.546 128.932 202.546 128.932C202.546 128.932 203.15 103.221 189.721 100.617C176.292 98.013 161.848 90.4271 158.349 100.164C156.461 105.629 153.942 110.854 150.845 115.732Z" fill="#2F2E41"/>
<path d="M202.84 121.845C204.303 121.845 205.489 120.259 205.489 118.302C205.489 116.345 204.303 114.758 202.84 114.758C201.377 114.758 200.192 116.345 200.192 118.302C200.192 120.259 201.377 121.845 202.84 121.845Z" fill="#FFB9B9"/>
<path d="M0.873993 0.308014V257.759H337.808V0.308014H0.873993ZM335.981 255.546H2.70818V2.53111H335.981V255.546Z" fill="white"/>
</svg>
