<svg width="394" height="370" viewBox="0 0 394 370" fill="none" xmlns="http://www.w3.org/2000/svg">
<path d="M285.953 314.125C285.953 358.072 237.544 341.976 177.829 341.976C118.113 341.976 69.7043 358.072 69.7043 314.125C69.7043 270.177 118.113 182.828 177.829 182.828C237.544 182.828 285.953 270.177 285.953 314.125Z" fill="#F3D017"/>
<path d="M393.779 350.978C381.255 348.87 369.211 347.06 357.646 345.547L362.218 336.74C360.676 336.209 353.904 341.252 353.904 341.252L359.903 315.688C352.15 316.617 348.208 342.719 348.208 342.719L339.545 333.894L343.739 343.816C313.317 340.162 282.709 338.248 252.066 338.084L255.979 330.546C254.438 330.014 247.665 335.058 247.665 335.058L253.664 309.494C245.911 310.423 241.969 336.525 241.969 336.525L233.307 327.7L237.748 338.208C227.693 338.408 218.515 338.835 210.194 339.4L211.575 336.741C210.597 336.403 207.516 338.308 205.392 339.747C204.78 339.794 204.182 339.844 203.58 339.892L209.26 315.688C202.936 316.446 199.147 333.953 197.966 340.38C197.134 340.457 196.309 340.535 195.499 340.614L188.963 333.956C194.438 325.516 202.452 318.855 202.452 318.855C192.184 321.889 186.798 326.973 183.984 331.713C183.732 307.485 187.787 283.403 195.962 260.576C195.962 260.576 174.739 306.46 177.447 337.26L177.737 342.154C148.788 339.26 123.335 338.131 101.423 338.084L105.336 330.546C103.795 330.014 97.0216 335.058 97.0216 335.058L103.021 309.494C95.268 310.423 91.326 336.525 91.326 336.525L82.6636 327.7L87.1054 338.208C69.4894 338.497 51.9 339.685 34.4065 341.765C38.3642 330.023 51.809 318.855 51.809 318.855C41.5413 321.889 36.1553 326.973 33.341 331.713C33.0895 307.485 37.1443 283.403 45.3189 260.576C45.3189 260.576 24.0959 306.46 26.8039 337.26L27.1278 342.729C9.13548 345.288 0.0896912 347.951 0.0896912 347.951L243.136 350.978C238.897 350.265 234.715 349.587 230.59 348.946L393.779 350.978ZM188.942 333.988L191.899 340.983C189.517 341.236 187.226 341.498 185.049 341.765C186.021 339.024 187.329 336.412 188.942 333.988V333.988Z" fill="#3F3D56"/>
<path d="M320.362 344.546C320.231 344.332 317.135 339.197 316.062 328.533C315.078 318.75 315.711 302.259 324.319 279.255C340.627 235.677 320.561 200.515 320.356 200.165L321.346 199.594C321.398 199.683 326.575 208.648 329.634 222.923C333.676 241.849 332.204 261.527 325.392 279.651C309.112 323.156 321.215 343.75 321.339 343.953L320.362 344.546Z" fill="#3F3D56"/>
<path d="M313.986 197.606C318.093 197.606 321.423 194.298 321.423 190.217C321.423 186.136 318.093 182.828 313.986 182.828C309.878 182.828 306.548 186.136 306.548 190.217C306.548 194.298 309.878 197.606 313.986 197.606Z" fill="#F3D017"/>
<path d="M337.441 224.888C341.549 224.888 344.878 221.58 344.878 217.499C344.878 213.419 341.549 210.11 337.441 210.11C333.334 210.11 330.004 213.419 330.004 217.499C330.004 221.58 333.334 224.888 337.441 224.888Z" fill="#3F3D56"/>
<path d="M321.423 243.077C325.53 243.077 328.86 239.768 328.86 235.688C328.86 231.607 325.53 228.299 321.423 228.299C317.315 228.299 313.986 231.607 313.986 235.688C313.986 239.768 317.315 243.077 321.423 243.077Z" fill="#F3D017"/>
<path d="M340.874 258.423C344.981 258.423 348.311 255.115 348.311 251.034C348.311 246.953 344.981 243.645 340.874 243.645C336.766 243.645 333.437 246.953 333.437 251.034C333.437 255.115 336.766 258.423 340.874 258.423Z" fill="#F3D017"/>
<path d="M315.702 282.295C319.809 282.295 323.139 278.987 323.139 274.906C323.139 270.825 319.809 267.517 315.702 267.517C311.594 267.517 308.265 270.825 308.265 274.906C308.265 278.987 311.594 282.295 315.702 282.295Z" fill="#3F3D56"/>
<path d="M324.855 344.818C324.855 344.818 317.418 326.629 339.729 312.988L324.855 344.818Z" fill="#3F3D56"/>
<path d="M315.709 344.488C315.709 344.488 312.324 325.146 286.127 325.312L315.709 344.488Z" fill="#3F3D56"/>
<path d="M195.439 29.0992C187.281 15.4041 171.141 14.7658 171.141 14.7658C171.141 14.7658 155.414 12.7677 145.325 33.6254C135.921 53.0666 122.943 71.8374 143.236 76.3884L146.901 65.0538L149.171 77.2323C152.06 77.4387 154.959 77.488 157.854 77.3797C179.585 76.6826 200.281 77.5837 199.615 69.8359C198.729 59.5363 203.288 42.2766 195.439 29.0992Z" fill="#2F2E41"/>
<path d="M136.639 139.63L134.922 170.323L185.266 175.439L186.982 143.609L169.82 132.81L136.639 139.63Z" fill="#A0616A"/>
<path d="M271.937 206.984C270.427 192.484 210.491 185.903 196.087 184.528L190.701 181.407L188.985 163.219C188.985 163.219 135.78 158.672 131.776 158.103C127.771 157.535 124.339 164.924 124.339 166.629C124.339 167.861 123.59 176.662 120.584 181.878C114.094 187.06 94.3041 203.365 94.3041 209.542C94.3041 216.931 110.036 309.862 110.036 309.862L111.753 329.187L127.771 332.029L126.627 271.78C126.627 271.78 132.348 237.109 124.339 227.446V223.467C124.339 223.467 147.83 217.387 156.109 210.766C158.508 210.254 165.25 208.992 168.973 210.089C169.484 210.388 170.073 210.695 170.727 211.007C170.811 211.082 170.89 211.162 170.964 211.247C170.964 211.247 170.987 211.211 171.028 211.149C181.739 216.129 209.213 222.412 220.449 220.625C229.115 219.311 237.975 220.912 245.621 225.173C239.328 233.13 243.905 255.865 243.905 255.865L244.477 304.746L252.486 314.409H263.356V287.695C263.356 287.695 273.653 223.467 271.937 206.984Z" fill="#2F2E41"/>
<path d="M166.101 66.5932C176.528 66.5932 184.98 58.1955 184.98 47.8365C184.98 37.4775 176.528 29.0798 166.101 29.0798C155.675 29.0798 147.222 37.4775 147.222 47.8365C147.222 58.1955 155.675 66.5932 166.101 66.5932Z" fill="#A0616A"/>
<path d="M154.659 59.7726C154.659 59.7726 157.52 72.2771 153.515 73.4138C150.347 74.4569 147.283 75.7888 144.362 77.3925L139.785 92.1705V106.949L195.277 113.201L196.994 108.085V100.696L190.701 89.3286L187.84 86.4867C187.84 86.4867 175.254 72.8455 178.115 59.7726H154.659Z" fill="#A0616A"/>
<path d="M204.145 104.959C204.145 104.959 205.861 124.853 204.145 133.947C202.429 143.041 203.001 156.682 203.001 156.682L190.415 154.409V123.716L193.275 107.233L204.145 104.959Z" fill="#A0616A"/>
<path d="M173.117 26.4295C179.562 26.4295 184.786 21.2385 184.786 14.8352C184.786 8.43178 179.562 3.24081 173.117 3.24081C166.672 3.24081 161.447 8.43178 161.447 14.8352C161.447 21.2385 166.672 26.4295 173.117 26.4295Z" fill="#2F2E41"/>
<path d="M160.218 11.784C160.219 8.92048 161.285 6.15834 163.213 4.02967C165.141 1.901 167.794 0.556383 170.66 0.254855C169.032 0.0826575 167.386 0.25254 165.829 0.753461C164.272 1.25438 162.838 2.07514 161.621 3.16243C160.404 4.24972 159.431 5.57921 158.765 7.06455C158.098 8.5499 157.754 10.1579 157.754 11.784C157.754 13.4102 158.098 15.0182 158.765 16.5035C159.431 17.9889 160.404 19.3184 161.621 20.4056C162.838 21.4929 164.272 22.3137 165.829 22.8146C167.386 23.3155 169.032 23.4854 170.66 23.3132C167.794 23.0117 165.141 21.6671 163.213 19.5384C161.285 17.4097 160.219 14.6476 160.218 11.784V11.784Z" fill="#2F2E41"/>
<path d="M191.832 27.7793L175.887 19.4805L153.868 22.8756L149.312 42.8668L160.652 42.433L163.82 35.0887V42.312L169.053 42.1122L172.091 30.419L173.989 42.8668L192.591 42.4895L191.832 27.7793Z" fill="#2F2E41"/>
<path d="M203.573 175.439H133.778V244.782H203.573V175.439Z" fill="#F2F2F2"/>
<path d="M122.336 95.2967L112.039 137.357C112.039 137.357 108.034 146.451 117.188 152.135C126.341 157.819 146.936 165.208 146.936 165.208C146.936 165.208 165.243 190.217 167.531 179.986C169.82 169.755 153.801 156.682 153.801 156.682L125.769 139.062L136.639 109.506L122.336 95.2967Z" fill="#A0616A"/>
<path d="M196.708 148.156C196.708 148.156 205.289 147.02 204.717 156.682C204.145 166.345 192.703 167.482 192.703 167.482C192.703 167.482 187.554 189.08 180.117 185.101C172.68 181.123 184.122 159.524 184.122 159.524L193.847 152.135L196.708 148.156Z" fill="#A0616A"/>
<path d="M141.501 91.6021L150.655 72.8454L132.348 79.0977C132.348 79.0977 122.05 84.2131 121.478 96.1492C120.906 108.085 134.636 114.338 134.636 114.338C134.636 114.338 136.925 131.389 135.78 133.663C134.636 135.936 135.78 145.03 135.78 145.03C135.78 145.03 157.806 139.062 168.675 146.451C179.545 153.84 188.412 149.577 188.412 149.577C188.412 149.577 187.84 135.368 192.417 133.094C196.994 130.821 200.998 120.021 196.994 113.201C196.994 113.201 206.147 114.338 205.575 105.812C205.003 97.286 200.426 89.897 192.989 86.4866C185.552 83.0763 184.73 82.5315 184.73 82.5315L195.278 101.833V106.949C195.278 106.949 176.605 95.1072 158.132 94.1204C152.105 93.8464 146.186 95.782 141.502 99.5593L141.501 99.5595V91.6021Z" fill="#2F2E41"/>
<path d="M126.881 310.1C126.881 310.1 134.999 313.895 137.387 315.319C139.774 316.742 149.325 313.895 147.415 322.435C145.505 330.975 137.387 339.04 137.387 339.04C137.387 339.04 133.567 343.31 133.567 346.157C133.567 349.003 124.016 370.828 112.555 369.879C101.095 368.93 103.005 357.543 103.005 357.543L105.392 345.208C105.392 345.208 110.168 324.333 111.123 324.807C112.078 325.282 114.465 328.603 114.465 328.603C114.465 328.603 126.404 323.858 126.881 310.1Z" fill="#D0CDE1"/>
<path d="M245.939 295.89C245.939 295.89 237.821 299.686 235.433 301.109C233.046 302.532 223.495 299.686 225.405 308.225C227.315 316.765 235.433 324.831 235.433 324.831C235.433 324.831 239.254 329.101 239.254 331.947C239.254 334.794 248.804 356.618 260.265 355.669C271.726 354.72 269.815 343.334 269.815 343.334L267.428 330.998C267.428 330.998 262.652 310.123 261.697 310.598C260.742 311.072 258.355 314.393 258.355 314.393C258.355 314.393 246.417 309.649 245.939 295.89Z" fill="#D0CDE1"/>
</svg>
